<svg id="Layer_1" data-name="Layer 1" xmlns="http://www.w3.org/2000/svg" viewBox="0 0 366.575 109.823"><defs><style>.cls-1{fill:#04d89f;}.cls-2{fill:#158fb5;}.cls-3{fill:#21edb2;}.cls-4{fill:#23accc;}.cls-5{fill:#44585e;}</style></defs><title>logo</title><polygon class="cls-1" points="66.818 0 66.818 100 119.205 86.636 93.011 9.364 66.818 0"/><polygon class="cls-2" points="51.818 0 51.818 100 0 86.636 25.909 9.364 51.818 0"/><polygon class="cls-3" points="66.818 20.346 66.818 79.654 98.016 71.728 82.417 25.899 66.818 20.346"/><polygon class="cls-4" points="51.818 20.346 51.818 79.654 20.756 71.728 36.287 25.899 51.818 20.346"/><path class="cls-5" d="M169.069,87.381H153.359V8.889h31.419a30.65,30.65,0,0,1,8.32,1.122,31.279,31.279,0,0,1,7.472,3.175,31.872,31.872,0,0,1,6.349,4.926,31.574,31.574,0,0,1,8.1,13.876,31.368,31.368,0,0,1-1.341,20.5,31.512,31.512,0,0,1-16.722,16.722,30.466,30.466,0,0,1-12.179,2.463H169.069V87.381Zm0-62.783V56.017h15.709a15.132,15.132,0,0,0,6.076-1.232,15.753,15.753,0,0,0,8.347-8.375,15.733,15.733,0,0,0,0-12.206,15.752,15.752,0,0,0-8.347-8.375,15.14,15.14,0,0,0-6.076-1.231H169.069Z" transform="translate(-0.258)"/><path class="cls-5" d="M280.4,57.549a31.582,31.582,0,0,1-2.354,12.234,30.612,30.612,0,0,1-6.4,9.8,29.966,29.966,0,0,1-9.5,6.514,29.736,29.736,0,0,1-23.317,0,30,30,0,0,1-15.956-16.312,31.564,31.564,0,0,1-2.354-12.234,32.055,32.055,0,0,1,2.354-12.37,30.3,30.3,0,0,1,6.432-9.825,29.909,29.909,0,0,1,9.524-6.486,29.008,29.008,0,0,1,11.632-2.354,30.7,30.7,0,0,1,11.686,2.217,28.253,28.253,0,0,1,9.5,6.294,29.84,29.84,0,0,1,6.4,9.8A33.164,33.164,0,0,1,280.4,57.549Zm-15.053,0a17.411,17.411,0,0,0-1.177-6.541,15.565,15.565,0,0,0-3.2-5.036,13.857,13.857,0,0,0-4.734-3.229,15.422,15.422,0,0,0-11.55,0,13.583,13.583,0,0,0-4.707,3.229,15.422,15.422,0,0,0-3.147,5.036,17.765,17.765,0,0,0-1.149,6.541,16.926,16.926,0,0,0,1.149,6.295,15.8,15.8,0,0,0,3.147,5.036,14.73,14.73,0,0,0,4.707,3.366,13.791,13.791,0,0,0,5.775,1.231,14.628,14.628,0,0,0,5.774-1.149,14.352,14.352,0,0,0,4.734-3.229,15.174,15.174,0,0,0,3.2-5.036A17.463,17.463,0,0,0,265.35,57.549Z" transform="translate(-0.258)"/><path class="cls-5" d="M303.72,87.381H288.668V5.44H303.72v81.94Z" transform="translate(-0.258)"/><path class="cls-5" d="M329.228,109.713V94.661l8.32,0.109a12.647,12.647,0,0,0,4.215-.712,14.467,14.467,0,0,0,3.749-1.971,14.725,14.725,0,0,0,3.038-2.982,16.206,16.206,0,0,0,2.135-3.75q-2.464,1.04-5.009,2.08a13.451,13.451,0,0,1-5.117,1.04,27.018,27.018,0,0,1-10.182-1.916,24.745,24.745,0,0,1-13.985-14.04,29.988,29.988,0,0,1-2.052-11.357v-32.4h14.888v32.4a15,15,0,0,0,.9,5.446,11.3,11.3,0,0,0,2.436,3.886,9.747,9.747,0,0,0,3.585,2.327,12.5,12.5,0,0,0,4.407.766,9.294,9.294,0,0,0,4.351-1.067A12.2,12.2,0,0,0,348.5,69.7a13.545,13.545,0,0,0,2.408-3.969,12.348,12.348,0,0,0,.876-4.57v-32.4h15.053V79.991a29.483,29.483,0,0,1-2.409,11.6,30.135,30.135,0,0,1-6.432,9.47,30.71,30.71,0,0,1-9.5,6.4,28.812,28.812,0,0,1-11.6,2.354Z" transform="translate(-0.258)"/></svg>